<svg width="100" height="20" viewBox="0 0 100 20" fill="none" xmlns="http://www.w3.org/2000/svg">
<g id="Nextjs-logo 1" clip-path="url(#clip0_29_1387)">
<path id="Vector" d="M66.4771 0.00830078H83.8953V3.17503H76.9857V19.8348H73.5306V3.17503H66.4771V0.00830078Z" fill="black"/>
<path id="Vector_2" d="M37.8303 0.00830078V3.17503H23.8684V8.26933H35.0966V11.4361H23.8684V16.6681H37.8303V19.8348H20.4136V3.17503H20.4121V0.00830078H37.8303Z" fill="black"/>
<path id="Vector_3" d="M46.5282 0.0164795H42.0068L58.2013 19.843H62.7358L54.6376 9.93654L62.7228 0.0316058L58.2013 0.0384883L52.3738 7.16737L46.5282 0.0164795Z" fill="black"/>
<path id="Vector_4" d="M51.1675 14.1787L48.9033 11.4058L41.9937 19.8582H46.5279L51.1675 14.1787Z" fill="black"/>
<path id="Vector_5" fill-rule="evenodd" clip-rule="evenodd" d="M20.5348 19.8348L4.31856 0H0V19.8265H3.45485V4.2379L16.1946 19.8348H20.5348Z" fill="black"/>
<path id="Vector_6" d="M84.6719 19.7136C84.4188 19.7136 84.2036 19.6273 84.0234 19.4546C83.8432 19.2819 83.7541 19.0729 83.7564 18.8252C83.7541 18.5844 83.8432 18.3776 84.0234 18.2049C84.2036 18.0323 84.4188 17.9459 84.6719 17.9459C84.9153 17.9459 85.1282 18.0323 85.3084 18.2049C85.4912 18.3776 85.5823 18.5844 85.5848 18.8252C85.5823 18.9888 85.5402 19.1388 85.4559 19.2728C85.3693 19.4092 85.2594 19.516 85.1211 19.5932C84.9853 19.6727 84.8356 19.7136 84.6719 19.7136Z" fill="black"/>
<path id="Vector_7" d="M90.5685 11.3613H92.0994V17.1712C92.0972 17.7051 91.9799 18.1618 91.7507 18.5458C91.519 18.9298 91.1982 19.2229 90.7862 19.4296C90.3766 19.6341 89.8967 19.7387 89.3512 19.7387C88.8525 19.7387 88.4055 19.65 88.0076 19.4774C87.6096 19.3047 87.2936 19.0457 87.0619 18.7048C86.8276 18.364 86.7129 17.9391 86.7129 17.4302H88.2464C88.2487 17.6529 88.3002 17.846 88.3984 18.0073C88.4967 18.1686 88.6324 18.2913 88.8058 18.3776C88.9812 18.464 89.1827 18.5072 89.4096 18.5072C89.6555 18.5072 89.8662 18.4572 90.037 18.3549C90.2078 18.2549 90.339 18.105 90.4304 17.905C90.5192 17.7074 90.5662 17.462 90.5685 17.1712V11.3613Z" fill="black"/>
<path id="Vector_8" d="M98.3985 13.6335C98.3612 13.2813 98.1973 13.0064 97.9117 12.811C97.6237 12.6133 97.2516 12.5156 96.795 12.5156C96.4744 12.5156 96.1983 12.5633 95.9689 12.6565C95.7394 12.7519 95.5615 12.8791 95.4397 13.0404C95.3181 13.2018 95.2572 13.3858 95.2524 13.5926C95.2524 13.7653 95.2945 13.9152 95.3765 14.0402C95.4584 14.1674 95.5683 14.2742 95.7112 14.3606C95.8516 14.4492 96.0084 14.5219 96.1795 14.5809C96.3526 14.64 96.526 14.69 96.699 14.7309L97.4973 14.924C97.8181 14.9967 98.1295 15.0945 98.4267 15.2194C98.7239 15.3421 98.9932 15.4989 99.2295 15.6875C99.4661 15.8761 99.6534 16.1033 99.7914 16.3691C99.9295 16.6349 99.9998 16.9462 99.9998 17.3052C99.9998 17.7892 99.8734 18.2141 99.6181 18.5821C99.363 18.9479 98.9955 19.2342 98.5133 19.441C98.0333 19.6455 97.4529 19.75 96.7694 19.75C96.1092 19.75 95.5333 19.6501 95.0488 19.4501C94.562 19.2524 94.1826 18.9616 93.9087 18.5799C93.6348 18.1982 93.4874 17.7324 93.4663 17.1848H94.9833C95.0044 17.4711 95.098 17.7097 95.2572 17.9028C95.4186 18.0936 95.6293 18.2345 95.8869 18.3299C96.1468 18.4231 96.4369 18.4708 96.7577 18.4708C97.0925 18.4708 97.3874 18.4208 97.6425 18.3231C97.8952 18.2254 98.0942 18.0891 98.2371 17.9119C98.3823 17.7369 98.4549 17.5302 98.4572 17.2939C98.4549 17.078 98.3892 16.8985 98.2628 16.7576C98.1341 16.6168 97.9562 16.4986 97.729 16.4032C97.4998 16.3078 97.2328 16.2214 96.9285 16.1464L95.9595 15.9056C95.2595 15.7306 94.7046 15.4648 94.2996 15.1081C93.8924 14.7514 93.6909 14.2788 93.6909 13.6857C93.6909 13.1995 93.8267 12.7724 94.1008 12.4065C94.3721 12.0407 94.7445 11.7567 95.215 11.5545C95.6879 11.35 96.2216 11.25 96.8161 11.25C97.4201 11.25 97.949 11.35 98.4056 11.5545C98.862 11.7567 99.2204 12.0385 99.48 12.3974C99.7399 12.7564 99.8757 13.1677 99.8828 13.6335H98.3985Z" fill="black"/>
</g>
<defs>
<clipPath id="clip0_29_1387">
<rect width="100" height="20" fill="white"/>
</clipPath>
</defs>
</svg>
