<svg width="79" height="48" viewBox="0 0 79 48" fill="none" xmlns="http://www.w3.org/2000/svg">
<g id="Node.js_logo 1" clip-path="url(#clip0_29_1362)">
<path id="Vector" d="M38.7373 48.0002C38.4787 48.0002 38.2218 47.9323 37.995 47.8018L35.6321 46.4028C35.2792 46.2055 35.4514 46.1357 35.5678 46.0954C36.0383 45.9307 36.1338 45.8935 36.6361 45.6082C36.6889 45.5781 36.758 45.5887 36.812 45.6206L38.6273 46.6978C38.6929 46.7333 38.7859 46.7333 38.8466 46.6978L45.9245 42.6123C45.9901 42.5751 46.0326 42.4989 46.0326 42.421V34.2535C46.0326 34.172 45.9901 34.0994 45.9231 34.0586L38.8481 29.9767C38.7825 29.9377 38.6957 29.9377 38.6301 29.9767L31.5565 34.0586C31.488 34.0976 31.4444 34.1738 31.4444 34.2518V42.4192C31.4444 42.4972 31.4869 42.5716 31.5542 42.6088L33.4924 43.7285C34.5448 44.2547 35.1879 43.6346 35.1879 43.011V34.9498C35.1879 34.8346 35.2783 34.7461 35.3935 34.7461H36.2899C36.4015 34.7461 36.4937 34.8346 36.4937 34.9498V43.0145C36.4937 44.4177 35.7283 45.2238 34.3978 45.2238C33.9885 45.2238 33.6661 45.2238 32.766 44.7809L30.9093 43.7108C30.4505 43.445 30.167 42.9489 30.167 42.4192V34.2518C30.167 33.7203 30.4505 33.2242 30.9093 32.962L37.9943 28.8747C38.4425 28.6214 39.0378 28.6214 39.4825 28.8747L46.5586 32.9637C47.0157 33.2277 47.3009 33.722 47.3009 34.2535V42.421C47.3009 42.9507 47.0157 43.445 46.5586 43.7108L39.4825 47.798C39.2557 47.9291 38.9988 47.9965 38.7366 47.9965" fill="#689F63"/>
<path id="Vector_2" d="M40.9235 42.3723C37.8266 42.3723 37.1772 40.9507 37.1772 39.7583C37.1772 39.6449 37.2687 39.5546 37.3822 39.5546H38.2964C38.3974 39.5546 38.4824 39.6281 38.4984 39.7279C38.6366 40.6594 39.0476 41.1293 40.9203 41.1293C42.412 41.1293 43.0463 40.7923 43.0463 40.0012C43.0463 39.5459 42.8656 39.2075 40.5482 38.9807C38.61 38.7894 37.4124 38.3624 37.4124 36.8122C37.4124 35.3842 38.6171 34.5338 40.635 34.5338C42.901 34.5338 44.0243 35.3204 44.166 37.0106C44.1713 37.0691 44.1501 37.1258 44.1111 37.1683C44.0721 37.2091 44.0172 37.2339 43.9605 37.2339H43.041C42.9453 37.2339 42.862 37.1665 42.8426 37.0744C42.6211 36.0947 42.086 35.7811 40.6315 35.7811C39.0033 35.7811 38.8137 36.348 38.8137 36.7732C38.8137 37.2888 39.037 37.4394 41.2339 37.7299C43.4095 38.0187 44.4424 38.4262 44.4424 39.9552C44.4424 41.4965 43.1561 42.3806 40.9132 42.3806M49.5342 33.7188H49.7716C49.9665 33.7188 50.0037 33.5824 50.0037 33.5027C50.0037 33.2936 49.8602 33.2936 49.7805 33.2936H49.536L49.5342 33.7188ZM49.2454 33.0491H49.7716C49.9523 33.0491 50.3067 33.0491 50.3067 33.4531C50.3067 33.7348 50.1259 33.7933 50.0179 33.8287C50.2287 33.8429 50.2429 33.9811 50.2712 34.1759C50.2854 34.2982 50.3084 34.509 50.3509 34.5799H50.0267C50.0179 34.509 49.9683 34.1192 49.9683 34.098C49.947 34.0112 49.9169 33.9687 49.8088 33.9687H49.5413V34.5817H49.2454V33.0491ZM48.6129 33.811C48.6129 34.4452 49.1249 34.959 49.7539 34.959C50.3881 34.959 50.9002 34.4346 50.9002 33.811C50.9002 33.1749 50.3811 32.67 49.7521 32.67C49.132 32.67 48.6112 33.1678 48.6112 33.8092M51.1199 33.8145C51.1199 34.5657 50.5051 35.1787 49.7557 35.1787C49.0115 35.1787 48.3915 34.5728 48.3915 33.8145C48.3915 33.0421 49.0257 32.4503 49.7557 32.4503C50.4909 32.4503 51.1181 33.0438 51.1181 33.8145" fill="#689F63"/>
<path id="Vector_3" fill-rule="evenodd" clip-rule="evenodd" d="M16.8196 16.0425C16.8196 15.7166 16.6478 15.4171 16.3664 15.255L8.86231 10.9374C8.73563 10.863 8.59372 10.8241 8.44986 10.8187H8.37226C8.2284 10.8241 8.08649 10.863 7.95769 10.9374L0.453905 15.255C0.174334 15.418 0 15.7174 0 16.0434L0.0164766 27.6727C0.0164766 27.834 0.0997457 27.9846 0.24148 28.0643C0.379671 28.1493 0.553296 28.1493 0.691487 28.0643L5.15258 25.5095C5.43428 25.3419 5.60613 25.0457 5.60613 24.7229V19.29C5.60613 18.9658 5.77799 18.6664 6.0588 18.5052L7.95804 17.4113C8.09907 17.3298 8.25391 17.2894 8.41159 17.2894C8.56679 17.2894 8.72518 17.3295 8.86231 17.4112L10.7607 18.5046C11.0417 18.6659 11.2142 18.9653 11.2142 19.2895V24.722C11.2142 25.0445 11.3884 25.3421 11.6687 25.5086L16.1269 28.0616C16.2669 28.1449 16.441 28.1449 16.5805 28.0616C16.7179 27.9819 16.8051 27.8313 16.8051 27.6701L16.8196 16.0425ZM52.2299 22.0974C52.2299 22.1784 52.1868 22.2533 52.1165 22.2934L49.5391 23.7791C49.4691 23.8193 49.3826 23.8193 49.3128 23.7791L46.735 22.2934C46.6641 22.2532 46.6216 22.1782 46.6216 22.0974V19.1217C46.6216 19.0406 46.6641 18.9658 46.7332 18.9251L49.3093 17.4369C49.3801 17.3961 49.467 17.3961 49.5378 17.4369L52.1156 18.9251C52.1865 18.9658 52.229 19.0406 52.229 19.1217L52.2299 22.0974ZM52.9262 0.0573642C52.7855 -0.0209442 52.6143 -0.0188182 52.4754 0.0621477C52.3373 0.143645 52.2519 0.292466 52.2519 0.453689V11.9696C52.2519 12.083 52.1916 12.1875 52.0935 12.2442C51.996 12.3009 51.8747 12.3009 51.7763 12.2442L49.8966 11.1616C49.6167 10.9996 49.2719 10.9996 48.9909 11.1616L41.4843 15.4939C41.2038 15.6551 41.0307 15.9545 41.0307 16.2769V24.944C41.0307 25.2682 41.2038 25.5659 41.4843 25.7289L48.9909 30.0642C49.2712 30.2254 49.6163 30.2254 49.8975 30.0642L57.4041 25.7271C57.684 25.5641 57.8576 25.2664 57.8576 24.9422V3.34189C57.8576 3.01306 57.6787 2.71063 57.3917 2.54994L52.9262 0.0573642ZM77.9233 19.0434C78.2022 18.8815 78.3739 18.5824 78.3739 18.26V16.1595C78.3739 15.8363 78.202 15.5381 77.9226 15.3755L70.4639 11.0455C70.1822 10.8825 69.8367 10.8825 69.555 11.0455L62.0501 15.3773C61.7684 15.5403 61.5966 15.8379 61.5966 16.1621V24.8257C61.5966 25.1516 61.772 25.4528 62.0537 25.6141L69.5107 29.8643C69.7853 30.022 70.1219 30.0238 70.4001 29.8696L74.9108 27.3627C75.0525 27.283 75.1429 27.1324 75.1429 26.9694C75.1429 26.8064 75.0561 26.654 74.9143 26.5743L67.3634 22.2408C67.2217 22.161 67.1349 22.0104 67.1349 21.8492V19.1315C67.1349 18.9692 67.2199 18.8197 67.3616 18.7389L69.7109 17.3835C69.8509 17.302 70.0227 17.302 70.1627 17.3835L72.5137 18.7389C72.6537 18.8186 72.7405 18.9692 72.7405 19.1304V21.2671C72.7405 21.4283 72.8273 21.5789 72.9672 21.6604C73.1072 21.7401 73.2808 21.7401 73.4208 21.6586L77.9233 19.0434Z" fill="black"/>
<path id="Vector_4" fill-rule="evenodd" clip-rule="evenodd" d="M69.8997 18.6381C69.9528 18.6067 70.0194 18.6067 70.0733 18.6381L71.5137 19.469C71.5675 19.5002 71.6005 19.5576 71.6005 19.6196V21.2832C71.6005 21.3452 71.5675 21.4026 71.5137 21.4338L70.0733 22.2647C70.0194 22.2961 69.9528 22.2961 69.8997 22.2647L68.4602 21.4338C68.4052 21.4026 68.3716 21.3452 68.3716 21.2832V19.6196C68.3716 19.5576 68.4035 19.5002 68.4584 19.469L69.8997 18.6381Z" fill="#689F63"/>
<g id="Clip path group">
<mask id="mask0_29_1362" style="mask-type:luminance" maskUnits="userSpaceOnUse" x="20" y="10" width="18" height="21">
<g id="a">
<path id="Vector_5" d="M28.4752 11.0888L21.0111 15.397C20.7316 15.5582 20.5601 15.8559 20.5601 16.1776V24.8C20.5601 25.1219 20.7316 25.4194 21.0111 25.5806L28.4758 29.8922C28.7548 30.0529 29.0989 30.0529 29.3775 29.8922L36.8409 25.5806C37.1191 25.4194 37.2909 25.1218 37.2909 24.8V16.1776C37.2909 15.8559 37.1191 15.5582 36.8392 15.397L29.3768 11.0888C29.2369 11.0085 29.081 10.9683 28.9251 10.9683C28.7691 10.9683 28.6132 11.0085 28.4733 11.0888" fill="white"/>
</g>
</mask>
<g mask="url(#mask0_29_1362)">
<g id="Group">
<path id="Vector_6" d="M44.8338 14.6655L23.8013 4.35608L13.0171 26.3558L34.0491 36.6657L44.8338 14.6655Z" fill="url(#paint0_linear_29_1362)"/>
</g>
</g>
</g>
<g id="Clip path group_2">
<mask id="mask1_29_1362" style="mask-type:luminance" maskUnits="userSpaceOnUse" x="20" y="10" width="18" height="21">
<g id="c">
<path id="Vector_7" d="M20.7451 25.3475C20.8165 25.4401 20.9058 25.5204 21.0109 25.5806L27.4137 29.279L28.4803 29.892C28.6397 29.9841 28.8215 30.0231 29.0001 30.0098C29.0596 30.005 29.1192 29.9939 29.1773 29.9774L37.0496 15.563C36.9893 15.4974 36.9188 15.4425 36.8398 15.3965L31.9524 12.5742L29.369 11.0877C29.2956 11.0452 29.2161 11.0151 29.1351 10.9938L20.7451 25.3475Z" fill="white"/>
</g>
</mask>
<g mask="url(#mask1_29_1362)">
<g id="Group_2">
<path id="Vector_8" d="M11.6514 17.7147L26.5025 37.815L46.1434 23.3038L31.2913 3.2041L11.6514 17.7147Z" fill="url(#paint1_linear_29_1362)"/>
</g>
</g>
</g>
<g id="Clip path group_3">
<mask id="mask2_29_1362" style="mask-type:luminance" maskUnits="userSpaceOnUse" x="21" y="10" width="17" height="21">
<g id="e">
<path id="Vector_9" d="M28.8361 10.9733C28.7108 10.9857 28.5884 11.0247 28.4756 11.0888L21.0327 15.3846L29.0584 30.0027C29.17 29.9868 29.2799 29.9496 29.3791 29.8922L36.8432 25.5806C37.0735 25.447 37.2312 25.221 37.279 24.9648L29.0974 10.988C29.0372 10.9761 28.9769 10.9699 28.9149 10.9699C28.8901 10.9699 28.8653 10.9711 28.8405 10.9735" fill="white"/>
</g>
</mask>
<g mask="url(#mask2_29_1362)">
<g id="Group_3">
<path id="Vector_10" d="M21.0327 10.9699V30.0031H37.276V10.9699H21.0327Z" fill="url(#paint2_linear_29_1362)"/>
</g>
</g>
</g>
</g>
<defs>
<linearGradient id="paint0_linear_29_1362" x1="34.3113" y1="9.49458" x2="23.5278" y2="31.4928" gradientUnits="userSpaceOnUse">
<stop offset="0.3" stop-color="#3E863D"/>
<stop offset="0.5" stop-color="#55934F"/>
<stop offset="0.8" stop-color="#5AAD45"/>
</linearGradient>
<linearGradient id="paint1_linear_29_1362" x1="19.1659" y1="27.8801" x2="38.8076" y2="13.3672" gradientUnits="userSpaceOnUse">
<stop offset="0.57" stop-color="#3E863D"/>
<stop offset="0.72" stop-color="#619857"/>
<stop offset="1" stop-color="#76AC64"/>
</linearGradient>
<linearGradient id="paint2_linear_29_1362" x1="21.0382" y1="20.487" x2="37.2791" y2="20.487" gradientUnits="userSpaceOnUse">
<stop offset="0.16" stop-color="#6BBF47"/>
<stop offset="0.38" stop-color="#79B461"/>
<stop offset="0.47" stop-color="#75AC64"/>
<stop offset="0.7" stop-color="#659E5A"/>
<stop offset="0.9" stop-color="#3E863D"/>
</linearGradient>
<clipPath id="clip0_29_1362">
<rect width="78.3741" height="48" fill="white"/>
</clipPath>
</defs>
</svg>
