<svg width="55" height="48" viewBox="0 0 55 48" fill="none" xmlns="http://www.w3.org/2000/svg">
<g id="React-icon 1" clip-path="url(#clip0_29_636)">
<path id="Vector" d="M27.4746 28.8085C30.1303 28.8085 32.2831 26.6557 32.2831 24C32.2831 21.3443 30.1303 19.1914 27.4746 19.1914C24.8189 19.1914 22.666 21.3443 22.666 24C22.666 26.6557 24.8189 28.8085 27.4746 28.8085Z" fill="black"/>
<g id="Group">
<path id="Vector_2" d="M27.4749 33.8516C41.725 33.8516 53.277 29.4409 53.277 24C53.277 18.559 41.725 14.1483 27.4749 14.1483C13.2248 14.1483 1.67285 18.559 1.67285 24C1.67285 29.4409 13.2248 33.8516 27.4749 33.8516Z" stroke="black"/>
<path id="Vector_3" d="M18.9429 28.9258C26.0679 41.2668 35.6637 49.0657 40.3757 46.3452C45.0877 43.6247 43.1315 31.4151 36.0065 19.0741C28.8815 6.73319 19.2856 -1.06574 14.5736 1.65473C9.86166 4.3752 11.8178 16.5849 18.9429 28.9258Z" stroke="black"/>
<path id="Vector_4" d="M18.9435 19.0741C11.8185 31.415 9.86233 43.6247 14.5743 46.3452C19.2863 49.0657 28.8821 41.2667 36.0072 28.9258C43.1322 16.5849 45.0884 4.37519 40.3764 1.65472C35.6644 -1.06575 26.0686 6.73318 18.9435 19.0741Z" stroke="black"/>
</g>
</g>
<defs>
<clipPath id="clip0_29_636">
<rect width="53.9498" height="48" fill="white" transform="translate(0.5)"/>
</clipPath>
</defs>
</svg>
